<svg width="27" height="35" viewBox="0 0 27 35" fill="none" xmlns="http://www.w3.org/2000/svg">
<g clip-path="url(#clip0_79_58)">
<path d="M26.4444 10.3177V0H0V17.1938H16.5278V21.2443C16.5278 22.158 16.1795 23.0344 15.5596 23.6805C14.9397 24.3266 14.0989 24.6896 13.2222 24.6896C12.3455 24.6896 11.5048 24.3266 10.8848 23.6805C10.2649 23.0344 9.91667 22.158 9.91667 21.2443V20.6318H0V21.2443C0 24.8993 1.39305 28.4046 3.8727 30.9891C6.35235 33.5736 9.71547 35.0255 13.2222 35.0255C16.729 35.0255 20.0921 33.5736 22.5717 30.9891C25.0514 28.4046 26.4444 24.8993 26.4444 21.2443V13.7557H9.91667V10.3177H26.4444ZM19.8333 21.2552V17.1938H23.1389V21.2443C23.1342 23.7355 22.2664 26.1412 20.6952 28.0186C19.1239 29.8959 16.955 31.1186 14.5876 31.4616C12.2201 31.8046 9.81348 31.2448 7.81056 29.8853C5.80763 28.5258 4.34322 26.458 3.68683 24.0625H7.20226C7.82305 25.4973 8.89662 26.6672 10.2442 27.3774C11.5919 28.0876 13.1322 28.2952 14.6089 27.9657C16.0855 27.6363 17.4093 26.7896 18.3599 25.5666C19.3105 24.3436 19.8305 22.8182 19.8333 21.2443V21.2552ZM6.61111 6.87604V13.7557H3.30556V3.43802H23.1389V6.87604H6.61111Z" fill="#DAC5A7"/>
</g>
<defs>
<clipPath id="clip0_79_58">
<rect width="26.4444" height="35" fill="white"/>
</clipPath>
</defs>
</svg>
